<?xml version="1.0" standalone="no"?>
<!DOCTYPE svg PUBLIC "-//W3C//DTD SVG 20010904//EN"
 "http://www.w3.org/TR/2001/REC-SVG-20010904/DTD/svg10.dtd">
<svg version="1.0" xmlns="http://www.w3.org/2000/svg"
 width="818.000000pt" height="730.000000pt" viewBox="0 0 818.000000 730.000000"
 preserveAspectRatio="xMidYMid meet">

<g transform="translate(0.000000,730.000000) scale(0.100000,-0.100000)"
fill="#000000" stroke="none">
<path d="M5 3655 c0 -1991 1 -2804 2 -1807 2 998 2 2627 0 3620 -1 994 -2 178
-2 -1813z"/>
<path d="M264 7130 c-12 -4 -31 -21 -43 -36 -19 -25 -21 -38 -21 -183 0 -137
2 -160 20 -188 11 -18 30 -35 42 -38 13 -3 151 -6 308 -7 366 -4 349 6 389
-223 11 -66 149 -847 305 -1735 157 -888 294 -1667 305 -1730 152 -876 203
-1147 224 -1177 47 -69 -193 -63 2718 -63 2614 0 2630 0 2669 20 22 11 47 34
55 50 9 17 35 142 60 278 477 2692 676 3843 673 3893 -7 100 -70 189 -162 231
l-51 23 -3128 5 -3129 5 -17 21 c-10 12 -23 55 -30 95 -67 385 -105 578 -118
603 -43 84 -112 136 -201 155 -63 13 -836 14 -868 1z m2623 -1380 c18 -10 39
-32 47 -47 9 -19 25 -149 46 -381 37 -399 37 -391 -40 -412 -27 -7 -221 -10
-598 -8 -510 3 -560 4 -589 21 -18 9 -39 30 -48 47 -17 32 -115 573 -115 634
0 57 40 119 92 145 42 21 53 21 608 21 543 0 566 -1 597 -20z m2609 1 c100
-45 107 -96 71 -487 -27 -283 -34 -311 -90 -341 -30 -17 -92 -18 -967 -18
-875 0 -937 1 -967 18 -18 9 -40 31 -49 48 -18 36 -67 537 -62 634 4 74 33
119 92 146 39 18 86 19 986 19 900 0 947 -1 986 -19z m1841 0 c51 -24 93 -89
93 -147 0 -61 -98 -602 -115 -634 -9 -17 -30 -38 -48 -47 -29 -17 -79 -18
-593 -21 -608 -3 -627 -2 -651 49 -11 22 -8 86 17 370 20 224 35 355 45 377 8
17 29 41 47 52 32 19 51 20 598 20 532 0 567 -2 607 -19z m-4379 -1320 c50
-10 99 -51 106 -90 6 -34 11 -78 41 -416 27 -302 26 -322 -21 -344 -18 -8
-181 -11 -548 -11 l-523 0 -34 23 c-20 14 -39 37 -46 58 -6 20 -34 166 -62
325 -43 244 -49 295 -40 329 17 66 67 112 137 126 52 10 938 10 990 0z m2365
0 c55 -9 92 -33 125 -81 17 -26 22 -47 22 -99 -1 -102 -46 -586 -58 -607 -6
-10 -22 -30 -37 -44 l-27 -25 -838 0 -838 0 -27 25 c-15 14 -31 33 -36 43 -12
20 -59 511 -59 608 0 52 5 73 23 99 31 47 70 72 119 81 60 9 1572 9 1631 0z
m1774 -14 c48 -26 80 -65 92 -113 9 -34 6 -68 -13 -181 -90 -519 -85 -501
-138 -533 -32 -19 -49 -20 -561 -20 l-529 0 -29 30 c-28 28 -30 34 -25 82 4
29 17 181 31 338 14 157 27 299 30 316 7 40 55 85 102 95 21 4 256 7 523 6
442 -2 488 -4 517 -20z m-3978 -1335 c61 -31 66 -53 100 -440 23 -254 29 -357
21 -372 -27 -51 -21 -50 -513 -50 -501 0 -510 1 -544 58 -26 42 -128 635 -119
685 9 47 64 110 108 124 21 7 197 11 473 12 400 1 443 -1 474 -17z m2137 -1
c42 -19 75 -57 89 -100 11 -37 7 -114 -20 -408 -26 -285 -29 -298 -88 -334
-31 -19 -52 -19 -739 -17 l-706 3 -27 25 c-15 14 -31 33 -36 42 -11 20 -59
533 -59 623 0 80 29 132 90 163 l44 22 706 0 c666 0 707 -1 746 -19z m1584 9
c41 -11 94 -61 109 -103 17 -45 13 -85 -42 -393 -34 -190 -59 -300 -71 -318
-36 -55 -45 -56 -546 -56 l-462 0 -29 30 c-29 28 -30 32 -24 97 65 732 60 703
127 736 29 15 85 17 468 17 255 0 450 -4 470 -10z"/>
<path d="M2585 1524 c-142 -30 -300 -128 -390 -242 -98 -123 -146 -266 -146
-431 1 -115 18 -189 70 -296 81 -165 219 -284 401 -347 88 -31 314 -33 400 -5
198 66 333 182 420 362 66 137 84 276 54 423 -20 96 -46 159 -100 243 -152
233 -437 350 -709 293z"/>
<path d="M6160 1525 c-256 -55 -458 -244 -526 -495 -22 -80 -24 -253 -5 -330
58 -233 227 -412 466 -496 74 -25 271 -31 355 -10 139 35 272 118 369 231 53
62 126 211 141 290 18 89 14 228 -9 317 -89 345 -444 566 -791 493z"/>
</g>
</svg>
