<?xml version="1.0" standalone="no"?>
<!DOCTYPE svg PUBLIC "-//W3C//DTD SVG 20010904//EN"
 "http://www.w3.org/TR/2001/REC-SVG-20010904/DTD/svg10.dtd">
<svg version="1.0" xmlns="http://www.w3.org/2000/svg"
 width="900.000000pt" height="580.000000pt" viewBox="0 0 900.000000 580.000000"
 preserveAspectRatio="xMidYMid meet">

<g transform="translate(0.000000,580.000000) scale(0.100000,-0.100000)"
fill="#000000" stroke="none">
<path d="M5 2920 c0 -1570 1 -2213 2 -1427 2 785 2 2069 0 2855 -1 785 -2 142
-2 -1428z"/>
<path d="M206 5580 c-26 -31 -26 -33 -26 -195 0 -161 0 -164 25 -194 l26 -30
297 -3 c323 -3 330 -4 367 -61 9 -14 118 -609 276 -1503 587 -3332 576 -3271
598 -3303 47 -66 -173 -61 2724 -61 2476 0 2624 1 2656 18 19 9 43 29 54 44
24 32 11 -33 203 1053 85 484 184 1044 219 1245 124 698 386 2186 411 2329 27
156 40 192 81 218 24 16 60 18 318 21 205 2 297 6 314 15 41 20 51 64 51 212
0 146 -11 194 -49 215 -15 7 -154 10 -474 8 l-452 -3 -47 -27 c-58 -35 -104
-89 -123 -148 -8 -25 -37 -175 -65 -335 -54 -307 -62 -340 -91 -355 -11 -6
-1116 -10 -3016 -10 -2963 0 -2999 0 -3020 20 -25 22 -19 -3 -84 365 -28 160
-58 308 -68 330 -25 56 -65 101 -120 133 l-46 27 -456 3 -457 3 -26 -31z
m2648 -1345 c37 -18 62 -55 70 -105 10 -58 56 -589 56 -646 0 -66 -20 -90 -82
-99 -24 -3 -291 -5 -593 -3 -603 3 -580 1 -621 62 -18 28 -116 556 -116 631
-1 78 32 129 102 159 53 23 1136 23 1184 1z m2609 1 c44 -18 95 -78 103 -121
10 -54 -44 -622 -63 -662 -34 -72 29 -68 -1018 -68 -882 0 -943 1 -968 18 -56
36 -59 49 -89 376 -31 327 -30 350 14 406 12 15 40 36 62 46 39 18 88 19 984
19 769 0 949 -2 975 -14z m1843 -5 c70 -32 111 -105 100 -181 -21 -148 -101
-571 -113 -598 -33 -69 -12 -67 -665 -67 l-586 0 -26 24 c-33 31 -33 24 4 428
32 351 34 357 93 393 31 19 54 20 592 20 524 0 563 -2 601 -19z m-4327 -1335
c57 -30 61 -45 92 -380 37 -400 37 -418 2 -446 -26 -20 -31 -20 -564 -18
l-538 3 -29 28 c-36 35 -38 42 -98 383 -31 180 -45 283 -40 307 9 48 44 96 86
118 32 18 68 19 548 19 428 0 518 -2 541 -14z m2386 -9 c47 -26 85 -92 85
-148 0 -68 -50 -588 -59 -611 -5 -13 -21 -34 -36 -48 l-27 -25 -831 -3 c-821
-2 -832 -2 -865 18 -18 11 -39 35 -46 53 -21 50 -69 618 -57 665 10 36 54 87
96 110 14 8 268 11 860 12 l840 0 40 -23z m1709 9 c51 -21 89 -78 93 -139 5
-57 -86 -592 -108 -640 -7 -15 -27 -36 -44 -47 -31 -19 -52 -20 -564 -20
l-532 0 -24 25 c-15 14 -25 36 -25 53 0 16 13 178 30 361 32 353 36 371 89
404 23 15 82 16 539 17 416 0 519 -3 546 -14z m-3985 -1334 c69 -34 70 -38
102 -388 37 -409 37 -426 2 -454 -26 -20 -32 -21 -504 -18 l-477 3 -27 25
c-15 14 -31 32 -35 41 -13 24 -110 584 -110 635 0 78 47 142 119 164 14 5 222
9 461 9 395 1 438 -1 469 -17z m2116 7 c53 -15 111 -74 121 -123 10 -56 -43
-642 -62 -678 -8 -16 -29 -38 -47 -48 -31 -19 -55 -20 -727 -20 -656 0 -697 1
-730 18 -59 32 -65 57 -95 399 -27 311 -27 311 -7 355 23 52 48 75 99 94 50
17 1384 20 1448 3z m1610 0 c51 -14 100 -65 114 -117 10 -34 8 -64 -9 -164
-58 -343 -92 -511 -107 -535 -34 -52 -45 -53 -548 -53 l-466 0 -24 25 c-16 15
-25 36 -25 55 0 17 14 182 30 366 34 383 39 401 117 424 43 13 870 12 918 -1z"/>
</g>
</svg>
